<svg xmlns="http://www.w3.org/2000/svg" width="184.144" height="28.309" viewBox="0 0 184.144 28.309">
  <g id="Group_15689" data-name="Group 15689" transform="translate(-3743 152.866)">
    <path id="Path_222" data-name="Path 222" d="M134.967,415.852h-12.8l-2.022,4.044h11.886c-1.123,4.613-6.02,8.085-11.886,8.085-6.7,0-12.127-4.527-12.127-10.112s5.428-10.108,12.127-10.108a12.611,12.611,0,0,1,10.73,5.4h5.792c-2.406-5.5-8.9-9.439-16.531-9.439-9.682,0-17.527,6.333-17.527,14.148s7.846,14.154,17.527,14.154c8.827,0,16.127-5.269,17.345-12.123h-4.535Z" transform="translate(3640.393 -556.58)" fill="#198fcd"/>
    <path id="Path_223" data-name="Path 223" d="M271.469,418.566h-.023c-.327,5.265-4.413,9.426-9.408,9.426s-9.084-4.161-9.412-9.426H252.6V403.739h-5.392v14.827h.018c.373,7.5,6.858,13.47,14.808,13.47s14.432-5.971,14.806-13.47h.018V403.739h-5.392Z" transform="translate(3537.565 -556.596)" fill="#198fcd"/>
    <path id="Path_224" data-name="Path 224" d="M637.974,427.969c-6.7,0-12.129-4.526-12.129-10.107s5.431-10.109,12.129-10.109c5.283,0,9.769,2.818,11.432,6.746h5.585c-1.868-6.192-8.776-10.789-17.017-10.789-9.675,0-17.521,6.337-17.521,14.152s7.846,14.15,17.521,14.15c8.235,0,15.14-4.59,17.013-10.775H649.4c-1.666,3.92-6.149,6.731-11.427,6.731" transform="translate(3272.153 -556.576)" fill="#198fcd"/>
    <path id="Path_225" data-name="Path 225" d="M515.736,403.713l-11.889,28.307h5.9l3.368-8.085h6.9l2.022-4.043H514.8l3.87-9.294,8.914,21.416h5.906L521.607,403.72Z" transform="translate(3355.072 -556.578)" fill="#198fcd"/>
    <path id="Path_226" data-name="Path 226" d="M402.168,403.713l-.005.005h-.016v.02l-9.424,11.223-9.444-11.248-.005.005h-5.385v28.3h5.392V410l9.442,11.248,9.424-11.225v21.994h5.39v-28.3h-5.363Z" transform="translate(3444.642 -556.578)" fill="#198fcd"/>
  </g>
</svg>
