<?xml version="1.0" encoding="UTF-8"?>
<svg id="Layer_2" data-name="Layer 2" xmlns="http://www.w3.org/2000/svg" viewBox="0 0 224.44 62.55">
  <defs>
    <style>
      .cls-1 {
        fill: #fff;
      }
    </style>
  </defs>
  <g id="Layer_1-2" data-name="Layer 1">
    <g>
      <g>
        <g>
          <path class="cls-1" d="M82.48,21.66c0,1.04-.1,1.97-.29,2.77-.2,.81-.46,1.51-.78,2.11-.32,.6-.7,1.1-1.13,1.51-.43,.41-.88,.73-1.35,.98-.46,.25-.93,.43-1.42,.54-.47,.11-.93,.17-1.35,.17-.88,0-1.64-.15-2.28-.45-.64-.3-1.23-.75-1.74-1.34h-.05v8.23c0,.28-.23,.52-.51,.52h-1.26c-.28,0-.51-.23-.51-.52V14.84c0-.28,.23-.51,.51-.51h.86c.23,0,.43,.15,.49,.37l.39,1.34h.05c.13-.21,.3-.42,.5-.62,.21-.2,.48-.41,.83-.64,.34-.23,.76-.42,1.25-.59,.48-.17,1.02-.25,1.59-.25,.81,0,1.58,.14,2.33,.43,.75,.29,1.41,.74,1.98,1.36,.57,.62,1.03,1.42,1.38,2.39,.35,.97,.52,2.16,.52,3.55Zm-2.44,.03c0-.87-.09-1.66-.26-2.36-.18-.7-.44-1.29-.8-1.78-.35-.49-.78-.87-1.3-1.13-.52-.26-1.11-.39-1.79-.39-.48,0-.93,.07-1.32,.21-.4,.14-.76,.31-1.08,.52-.32,.21-.6,.44-.83,.68-.18,.19-.33,.36-.45,.51-.07,.09-.11,.2-.11,.31v7.47c0,.14,.05,.27,.15,.36,.46,.46,.97,.82,1.54,1.1,.63,.31,1.31,.46,2.04,.46,.44,0,.91-.09,1.41-.26,.5-.17,.95-.48,1.37-.93,.42-.45,.76-1.06,1.04-1.83,.27-.77,.41-1.75,.41-2.94Z"/>
          <path class="cls-1" d="M88.83,16.77h.05c.26-.35,.55-.67,.87-.97,.32-.3,.68-.56,1.07-.78,.39-.22,.81-.39,1.26-.51,.45-.13,.94-.19,1.46-.19s1.09,.08,1.62,.23c.54,.15,1.05,.42,1.51,.81,.46,.39,.84,.93,1.13,1.63,.29,.7,.43,1.59,.43,2.69v9.54c0,.28-.23,.51-.51,.51h-1.3c-.29,0-.52-.23-.52-.51v-9.14c0-1.21-.22-2.12-.65-2.74-.44-.61-1.15-.92-2.15-.92-.82,0-1.61,.23-2.35,.7-.7,.44-1.31,1.04-1.84,1.8-.06,.09-.09,.19-.09,.3v9.99c0,.28-.23,.51-.51,.51h-1.31c-.28,0-.51-.23-.51-.51V7.36c0-.28,.23-.51,.51-.51h1.31c.28,0,.51,.23,.51,.51v9.41Z"/>
          <path class="cls-1" d="M111.31,27.68h-.06c-.19,.25-.43,.5-.72,.75-.29,.25-.63,.47-1.01,.66-.38,.2-.8,.35-1.25,.47-.45,.12-.94,.17-1.45,.17-.69,0-1.33-.11-1.91-.32-.58-.22-1.07-.53-1.49-.95-.42-.42-.74-.92-.97-1.52-.23-.6-.34-1.28-.34-2.04s.13-1.42,.38-2.01c.26-.59,.62-1.09,1.08-1.5,.46-.41,1.02-.73,1.66-.95,.65-.22,1.36-.33,2.15-.33,.74,.01,1.43,.08,2.06,.21,.63,.13,1.19,.28,1.68,.48h.06v-1.04c0-.41-.02-.78-.07-1.09-.05-.32-.14-.6-.26-.84-.26-.5-.68-.92-1.25-1.26-.57-.33-1.34-.5-2.32-.5-.72,0-1.4,.07-2.04,.21-.41,.09-.82,.21-1.23,.34-.33,.11-.68-.13-.68-.48v-1c0-.2,.12-.39,.3-.47,.17-.07,.35-.14,.55-.21,.32-.11,.67-.21,1.03-.29,.36-.08,.74-.14,1.14-.18,.4-.04,.8-.06,1.2-.06,1.45,0,2.63,.27,3.55,.81,.92,.54,1.58,1.25,1.98,2.13,.15,.34,.26,.71,.32,1.12,.06,.41,.1,.85,.1,1.34v9.51c0,.28-.23,.51-.51,.51h-1c-.25,0-.47-.18-.51-.43l-.19-1.22Zm-.12-4.54c0-.23-.16-.44-.38-.5-.34-.09-.72-.17-1.15-.26-.59-.11-1.24-.18-1.95-.19-.99,0-1.76,.22-2.32,.66-.56,.44-.84,1.12-.84,2.04,0,.46,.07,.87,.21,1.22,.14,.35,.33,.63,.58,.86,.24,.23,.53,.39,.87,.51,.33,.11,.69,.17,1.07,.17,.5,0,.97-.08,1.39-.23,.43-.15,.81-.33,1.15-.55,.33-.21,.62-.42,.86-.63,.14-.13,.26-.24,.36-.34,.1-.1,.16-.23,.16-.37v-2.4Z"/>
          <path class="cls-1" d="M126.07,16.46c0,.14-.11,.26-.25,.27-.4,.02-1.17,.07-1.55,.15-.53,.11-1.03,.27-1.5,.48-.46,.22-.89,.48-1.26,.8-.34,.28-.63,.62-.87,.99-.05,.08-.08,.18-.08,.28v9.8c0,.28-.23,.51-.51,.51h-1.31c-.28,0-.51-.23-.51-.51V15.23c0-.28,.23-.51,.51-.51h.87c.25,0,.46,.18,.5,.42l.37,1.97h.05c.23-.39,.51-.75,.85-1.09,.34-.34,.71-.63,1.14-.89,.42-.25,.88-.45,1.38-.59,.5-.14,1.03-.21,1.58-.21,.06,0,.2,0,.34,.01,.14,0,.25,.12,.25,.26v1.86Z"/>
          <path class="cls-1" d="M139.91,29.73h-1.31c-.28,0-.51-.23-.51-.51v-9.14c0-.65-.07-1.21-.2-1.67-.14-.46-.33-.84-.59-1.13-.26-.3-.56-.51-.92-.65-.36-.14-.75-.21-1.2-.21-.83,0-1.59,.23-2.27,.7-.65,.44-1.23,1.04-1.75,1.8-.06,.09-.09,.19-.09,.29v10c0,.28-.23,.51-.51,.51h-1.31c-.28,0-.51-.23-.51-.51V15.23c0-.28,.23-.51,.51-.51h.88c.24,0,.45,.17,.5,.4l.36,1.68h.05c.26-.35,.54-.67,.85-.97,.31-.3,.65-.56,1.02-.79,.38-.23,.79-.4,1.24-.53,.45-.13,.94-.19,1.48-.19,1.06,0,1.95,.27,2.65,.81,.7,.54,1.24,1.27,1.63,2.2h.06c.63-.94,1.36-1.67,2.17-2.21,.81-.53,1.77-.8,2.85-.8,.5,0,1.03,.07,1.6,.22,.56,.15,1.08,.42,1.55,.81,.47,.4,.86,.94,1.18,1.64,.31,.7,.46,1.59,.46,2.69v9.54c0,.28-.23,.51-.51,.51h-1.31c-.28,0-.51-.23-.51-.51v-9.14c0-.65-.07-1.21-.2-1.67-.14-.46-.33-.84-.59-1.13-.26-.3-.56-.51-.92-.65-.43-.17-.93-.23-1.48-.2-.67,.04-1.32,.26-1.88,.62-.69,.45-1.32,1.07-1.86,1.87-.06,.09-.09,.19-.09,.29v10c0,.28-.23,.51-.51,.51Z"/>
          <path class="cls-1" d="M162.84,27.68h-.06c-.19,.25-.43,.5-.73,.75-.29,.25-.63,.47-1.01,.66-.38,.2-.8,.35-1.25,.47-.45,.12-.93,.17-1.45,.17-.69,0-1.33-.11-1.9-.32-.58-.22-1.07-.53-1.49-.95-.42-.42-.74-.92-.97-1.52-.23-.6-.35-1.28-.35-2.04s.13-1.42,.38-2.01c.26-.59,.62-1.09,1.08-1.5,.46-.41,1.02-.73,1.67-.95,.65-.22,1.36-.33,2.14-.33,.74,.01,1.43,.08,2.06,.21,.63,.13,1.19,.28,1.69,.48h.06v-1.04c0-.41-.03-.78-.08-1.09-.05-.32-.14-.6-.26-.84-.26-.5-.67-.92-1.25-1.26-.57-.33-1.34-.5-2.32-.5-.72,0-1.4,.07-2.04,.21-.41,.09-.82,.21-1.23,.34-.33,.11-.68-.13-.68-.48v-1c0-.2,.12-.39,.3-.47,.17-.07,.35-.14,.55-.21,.33-.11,.67-.21,1.03-.29,.36-.08,.74-.14,1.14-.18,.4-.04,.8-.06,1.2-.06,1.45,0,2.63,.27,3.55,.81,.92,.54,1.58,1.25,1.98,2.13,.15,.34,.26,.71,.32,1.12,.06,.41,.09,.85,.09,1.34v9.51c0,.28-.23,.51-.51,.51h-1c-.25,0-.47-.18-.51-.43l-.19-1.22Zm-.12-4.54c0-.23-.16-.44-.38-.5-.34-.09-.72-.17-1.15-.26-.59-.11-1.24-.18-1.95-.19-.99,0-1.76,.22-2.32,.66-.56,.44-.84,1.12-.84,2.04,0,.46,.07,.87,.21,1.22,.14,.35,.33,.63,.58,.86,.25,.23,.54,.39,.87,.51,.33,.11,.69,.17,1.07,.17,.5,0,.97-.08,1.39-.23,.43-.15,.81-.33,1.15-.55,.33-.21,.62-.42,.86-.63,.14-.13,.26-.24,.36-.34,.1-.1,.15-.23,.15-.37v-2.4Z"/>
          <path class="cls-1" d="M178.36,28.93c0,.24-.16,.44-.39,.5-.31,.08-.66,.14-1.05,.19-.56,.07-1.08,.11-1.56,.11-1.23,0-2.23-.21-3-.62-.78-.42-1.33-1.01-1.65-1.8-.23-.56-.35-1.32-.35-2.28v-7.42c0-.28-.23-.51-.51-.51h-1.7c-.28,0-.51-.23-.51-.51v-2.06c0-.28,.23-.51,.51-.51h1.7c.28,0,.51-.23,.51-.51v-3.67c0-.26,.18-.49,.43-.55l2.61-.65c.27-.07,.53,.14,.53,.41v4.45c0,.28,.23,.51,.51,.51h3.19c.28,0,.51,.23,.51,.51v2.06c0,.28-.23,.51-.51,.51h-3.19c-.28,0-.51,.23-.51,.51v6.93c0,.59,.09,1.03,.26,1.31,.3,.48,.9,.73,1.79,.73,.41,0,.82-.03,1.22-.1,.18-.03,.36-.06,.53-.1,.32-.07,.63,.17,.63,.5v2.05Z"/>
          <path class="cls-1" d="M188.85,26.72c.69,0,1.41-.07,2.17-.22,.54-.1,1.08-.24,1.63-.41,.33-.1,.66,.15,.66,.49v1.93c0,.21-.13,.41-.33,.48-.44,.16-1.04,.32-1.79,.47-.95,.19-1.94,.29-2.97,.29s-2.01-.14-2.94-.42c-.93-.28-1.74-.73-2.43-1.35-.69-.62-1.24-1.43-1.65-2.42-.4-.99-.61-2.19-.61-3.6s.19-2.61,.57-3.65c.38-1.04,.89-1.91,1.54-2.59,.64-.69,1.37-1.2,2.2-1.54,.83-.34,1.68-.51,2.57-.51s1.77,.15,2.55,.44c.78,.29,1.45,.76,2.01,1.39,.57,.63,1.01,1.44,1.32,2.44,.31,1,.48,2.17,.48,3.53,0,.31-.01,.59-.02,.85,0,.28-.24,.5-.52,.5h-8.49c-.31,0-.56,.28-.51,.59,.08,.46,.21,.86,.38,1.22,.25,.5,.58,.91,.99,1.22,.41,.31,.88,.54,1.42,.68,.54,.14,1.13,.21,1.76,.21Zm-1.43-10.15c-.45,0-.85,.09-1.2,.26-.35,.17-.66,.41-.91,.71-.26,.3-.46,.65-.61,1.05-.08,.21-.15,.43-.2,.66-.07,.32,.18,.62,.5,.62h4.59c.3,0,.55-.26,.51-.56-.03-.25-.08-.49-.14-.71-.12-.4-.29-.75-.51-1.05-.23-.3-.51-.54-.84-.71-.34-.17-.73-.26-1.18-.26Z"/>
          <path class="cls-1" d="M207.83,28.66c0,.22-.14,.41-.34,.48-.38,.14-.82,.27-1.32,.38-.65,.14-1.34,.21-2.06,.21-1.06,0-2.04-.16-2.95-.47-.91-.32-1.71-.8-2.39-1.44-.68-.64-1.22-1.46-1.61-2.44-.39-.98-.59-2.14-.59-3.45,0-1.47,.22-2.74,.68-3.79,.45-1.05,1.04-1.91,1.75-2.57,.72-.66,1.52-1.14,2.42-1.45,.9-.31,1.78-.47,2.66-.47,.65,0,1.28,.06,1.88,.18,.47,.09,.91,.22,1.32,.37,.2,.07,.32,.27,.32,.48v1.95c0,.35-.35,.59-.68,.48-.23-.08-.48-.15-.73-.21-.49-.12-1.03-.18-1.6-.18s-1.12,.09-1.64,.28c-.52,.18-.98,.48-1.38,.88-.4,.4-.72,.93-.95,1.59-.24,.66-.35,1.45-.35,2.38,0,.68,.09,1.31,.27,1.91,.18,.59,.44,1.1,.79,1.52,.35,.42,.79,.76,1.33,1.02,.54,.26,1.17,.39,1.9,.39,.65,0,1.24-.07,1.78-.21,.28-.07,.56-.15,.82-.24,.33-.11,.68,.13,.68,.48v1.96Z"/>
          <path class="cls-1" d="M214.82,13.09c0,.79-.01,1.44-.04,1.95-.03,.51-.07,.97-.13,1.38h.06c.21-.29,.47-.59,.77-.89,.3-.29,.64-.55,1.01-.77,.37-.22,.78-.39,1.25-.53,.46-.14,.98-.21,1.54-.21,.48,0,.95,.05,1.41,.15,.46,.1,.88,.26,1.28,.47,.4,.21,.76,.48,1.09,.82,.32,.34,.6,.74,.82,1.2,.19,.4,.33,.85,.42,1.36,.09,.51,.14,1.12,.14,1.85v9.33c0,.28-.23,.51-.51,.51h-2.54c-.28,0-.51-.23-.51-.51v-8.83c0-.47-.02-.86-.06-1.16-.04-.3-.11-.56-.21-.78-.21-.46-.51-.79-.9-.98-.39-.19-.84-.28-1.34-.28-.69,.01-1.33,.18-1.92,.52-.54,.31-1.05,.76-1.51,1.34-.07,.09-.11,.21-.11,.32v9.85c0,.28-.23,.51-.51,.51h-2.54c-.28,0-.51-.23-.51-.51V8.81c0-.42,.27-.8,.66-.94l2.38-.6c.27-.07,.52,.13,.52,.41v5.41Z"/>
        </g>
        <g>
          <path class="cls-1" d="M70.84,52.72h-1.04v-8.88h1.04v8.88Z"/>
          <path class="cls-1" d="M78.3,52.72h-1.01v-3.61c0-.67-.12-1.18-.37-1.51-.25-.34-.61-.5-1.1-.5s-.93,.19-1.26,.57c-.33,.38-.5,.86-.5,1.45v3.61h-1.01v-6.34h1.01v1.05h.02c.24-.4,.53-.7,.88-.9,.35-.2,.75-.3,1.2-.3,.69,0,1.22,.22,1.59,.67s.55,1.09,.55,1.94v3.87Z"/>
          <path class="cls-1" d="M85.47,52.72h-1.01v-3.61c0-.67-.12-1.18-.37-1.51-.25-.34-.61-.5-1.1-.5s-.93,.19-1.26,.57c-.33,.38-.5,.86-.5,1.45v3.61h-1.01v-6.34h1.01v1.05h.02c.24-.4,.53-.7,.88-.9,.35-.2,.75-.3,1.2-.3,.69,0,1.22,.22,1.59,.67s.55,1.09,.55,1.94v3.87Z"/>
          <path class="cls-1" d="M90.03,52.72c-.94,0-1.68-.3-2.24-.89-.56-.59-.84-1.38-.84-2.35,0-1.06,.29-1.89,.87-2.49,.58-.6,1.37-.9,2.36-.9,.94,0,1.68,.29,2.21,.87,.53,.59,.8,1.39,.8,2.42s-.29,1.83-.86,2.43c-.57,.61-1.34,.91-2.3,.91Zm.07-.85c.66,0,1.16-.21,1.51-.64,.35-.43,.53-1.03,.53-1.81s-.18-1.41-.53-1.84c-.36-.43-.86-.64-1.51-.64s-1.17,.22-1.55,.67c-.38,.45-.57,1.06-.57,1.83s.19,1.34,.58,1.78,.9,.65,1.54,.65Z"/>
          <path class="cls-1" d="M99.79,46.38l-2.53,6.34h-1l-2.4-6.34h1.11l1.61,4.61c.06,.17,.11,.33,.14,.47,.04,.15,.06,.28,.08,.41h.02c.02-.16,.05-.31,.08-.45,.03-.14,.07-.28,.12-.41l1.68-4.63h1.07Z"/>
          <path class="cls-1" d="M105.37,52.57h-1.01v-.99h-.02c-.22,.38-.49,.66-.81,.85-.32,.19-.69,.28-1.12,.28-.59,0-1.08-.17-1.44-.52-.37-.35-.55-.81-.55-1.38,0-.54,.19-.99,.56-1.34,.37-.35,.9-.58,1.58-.68l1.81-.24v-.14c0-.53-.12-.91-.37-1.14s-.58-.34-.99-.34c-.33,0-.65,.06-.95,.19-.31,.12-.59,.31-.86,.57l-.59-.61c.35-.34,.73-.59,1.13-.76,.4-.16,.85-.24,1.34-.24,.77,0,1.35,.2,1.73,.59,.39,.39,.58,.99,.58,1.77v4.12Zm-1.01-2.57v-.63l-1.53,.21c-.47,.07-.82,.18-1.05,.35-.24,.17-.35,.44-.35,.8s.11,.67,.33,.87c.22,.2,.49,.3,.81,.3,.55,0,.98-.18,1.31-.54,.32-.36,.49-.81,.49-1.36Z"/>
          <path class="cls-1" d="M110.35,52.51c-.17,.07-.34,.12-.51,.16-.17,.03-.36,.05-.57,.05-.5,0-.9-.15-1.19-.44-.29-.29-.43-.73-.43-1.31v-3.86h-1.09v-.87h1.09v-1.55l1.01-.33v1.88h1.6v.87h-1.6v3.74c0,.36,.07,.63,.2,.79s.32,.24,.58,.24c.12,0,.24-.01,.36-.04,.12-.03,.21-.06,.29-.1l.25,.77Z"/>
          <path class="cls-1" d="M112.15,44.87c-.21,0-.38-.07-.52-.21-.14-.14-.21-.31-.21-.51s.07-.37,.21-.51c.14-.14,.31-.21,.52-.21s.38,.07,.52,.21c.14,.14,.21,.31,.21,.51s-.07,.37-.21,.51c-.14,.14-.31,.21-.52,.21Zm.49,7.85h-1.01v-6.34h1.01v6.34Z"/>
          <path class="cls-1" d="M117.35,52.72c-.94,0-1.68-.3-2.24-.89-.56-.59-.84-1.38-.84-2.35,0-1.06,.29-1.89,.87-2.49,.58-.6,1.37-.9,2.36-.9,.94,0,1.68,.29,2.21,.87,.53,.59,.8,1.39,.8,2.42s-.29,1.83-.86,2.43c-.57,.61-1.34,.91-2.3,.91Zm.07-.85c.66,0,1.16-.21,1.51-.64,.35-.43,.53-1.03,.53-1.81s-.18-1.41-.53-1.84c-.36-.43-.86-.64-1.51-.64s-1.17,.22-1.55,.67c-.38,.45-.57,1.06-.57,1.83s.19,1.34,.58,1.78,.9,.65,1.54,.65Z"/>
          <path class="cls-1" d="M127.39,52.72h-1.01v-3.61c0-.67-.12-1.18-.37-1.51-.25-.34-.61-.5-1.1-.5s-.93,.19-1.26,.57c-.33,.38-.5,.86-.5,1.45v3.61h-1.01v-6.34h1.01v1.05h.02c.24-.4,.53-.7,.88-.9,.35-.2,.75-.3,1.2-.3,.69,0,1.22,.22,1.59,.67s.55,1.09,.55,1.94v3.87Z"/>
          <path class="cls-1" d="M135.8,44.17c-.12-.04-.22-.06-.31-.08-.09-.02-.19-.02-.29-.02-.35,0-.6,.09-.77,.28-.17,.19-.25,.46-.25,.82v1.23h1.49v.87h-1.49v5.47h-1.01v-5.47h-1.08v-.87h1.08v-1.27c0-.6,.18-1.07,.55-1.4s.87-.5,1.51-.5c.16,0,.3,.01,.43,.03,.13,.02,.26,.06,.4,.1l-.24,.83Z"/>
          <path class="cls-1" d="M139.39,52.72c-.94,0-1.68-.3-2.24-.89-.56-.59-.84-1.38-.84-2.35,0-1.06,.29-1.89,.87-2.49,.58-.6,1.37-.9,2.36-.9,.94,0,1.68,.29,2.21,.87,.53,.59,.8,1.39,.8,2.42s-.29,1.83-.86,2.43c-.57,.61-1.34,.91-2.3,.91Zm.07-.85c.66,0,1.16-.21,1.51-.64,.35-.43,.53-1.03,.53-1.81s-.18-1.41-.53-1.84c-.36-.43-.86-.64-1.51-.64s-1.17,.22-1.55,.67c-.38,.45-.57,1.06-.57,1.83s.19,1.34,.58,1.78,.9,.65,1.54,.65Z"/>
          <path class="cls-1" d="M147.29,47.25c-.08-.02-.15-.04-.21-.05-.06-.01-.14-.02-.24-.02-.52,0-.92,.22-1.22,.66-.3,.44-.45,.99-.45,1.65v3.23h-1.01v-6.34h1.01v1.26h.02c.14-.45,.37-.78,.66-1.02s.64-.35,1.03-.35c.13,0,.24,0,.32,.02,.09,.01,.17,.03,.24,.06l-.17,.9Z"/>
          <path class="cls-1" d="M157.31,52.72h-1.01v-3.65c0-.66-.12-1.16-.37-1.49-.25-.33-.61-.5-1.1-.5s-.91,.19-1.25,.57-.51,.87-.51,1.47v3.59h-1.01v-9.38h1.01v4.1h.02c.24-.4,.54-.7,.89-.9s.74-.3,1.19-.3c.71,0,1.25,.21,1.61,.64,.36,.43,.54,1.08,.54,1.94v3.91Z"/>
          <path class="cls-1" d="M164.32,49.63h-4.48c.02,.71,.21,1.26,.57,1.65s.87,.58,1.52,.58c.28,0,.57-.04,.86-.13,.29-.08,.57-.22,.85-.41l.47,.72c-.36,.23-.72,.4-1.08,.51-.36,.11-.75,.16-1.18,.16-.96,0-1.7-.28-2.24-.85-.54-.57-.81-1.36-.81-2.38,0-1.02,.26-1.84,.81-2.46,.54-.62,1.25-.93,2.11-.93s1.47,.27,1.92,.81,.68,1.28,.68,2.24v.5Zm-1.04-.83c0-.59-.15-1.04-.43-1.37s-.67-.49-1.16-.49-.89,.17-1.23,.5c-.34,.34-.54,.79-.62,1.36h3.43Z"/>
          <path class="cls-1" d="M170.34,52.57h-1.01v-.99h-.02c-.22,.38-.49,.66-.81,.85-.32,.19-.69,.28-1.12,.28-.59,0-1.08-.17-1.44-.52-.37-.35-.55-.81-.55-1.38,0-.54,.19-.99,.56-1.34,.37-.35,.9-.58,1.58-.68l1.81-.24v-.14c0-.53-.12-.91-.37-1.14s-.58-.34-.99-.34c-.33,0-.65,.06-.95,.19-.31,.12-.59,.31-.86,.57l-.59-.61c.35-.34,.73-.59,1.13-.76,.4-.16,.85-.24,1.34-.24,.77,0,1.35,.2,1.73,.59,.39,.39,.58,.99,.58,1.77v4.12Zm-1.01-2.57v-.63l-1.53,.21c-.47,.07-.82,.18-1.05,.35-.24,.17-.35,.44-.35,.8s.11,.67,.33,.87c.22,.2,.49,.3,.81,.3,.55,0,.98-.18,1.31-.54,.32-.36,.49-.81,.49-1.36Z"/>
          <path class="cls-1" d="M172.3,52.72v-9.38h1.01v9.38h-1.01Z"/>
          <path class="cls-1" d="M178.39,52.51c-.17,.07-.34,.12-.51,.16-.17,.03-.36,.05-.57,.05-.5,0-.9-.15-1.19-.44-.29-.29-.43-.73-.43-1.31v-3.86h-1.09v-.87h1.09v-1.55l1.01-.33v1.88h1.6v.87h-1.6v3.74c0,.36,.07,.63,.2,.79s.32,.24,.58,.24c.12,0,.24-.01,.36-.04,.12-.03,.21-.06,.29-.1l.25,.77Z"/>
          <path class="cls-1" d="M184.93,52.72h-1.01v-3.65c0-.66-.12-1.16-.37-1.49-.25-.33-.61-.5-1.1-.5s-.91,.19-1.25,.57-.51,.87-.51,1.47v3.59h-1.01v-9.38h1.01v4.1h.02c.24-.4,.54-.7,.89-.9s.74-.3,1.19-.3c.71,0,1.25,.21,1.61,.64,.36,.43,.54,1.08,.54,1.94v3.91Z"/>
          <path class="cls-1" d="M191.89,46.38l-2.99,7.55c-.24,.59-.53,1.04-.89,1.33-.35,.29-.77,.44-1.25,.44-.12,0-.24,0-.34-.02-.1-.01-.2-.03-.3-.06l.2-.87c.07,.02,.14,.04,.21,.05,.06,.01,.13,.02,.19,.02,.27,0,.5-.07,.68-.21,.18-.14,.32-.34,.43-.59l.55-1.31-2.48-6.33h1.13l1.71,4.88s.02,.08,.05,.17c.02,.08,.05,.19,.08,.32h.04s.03-.11,.05-.19c.02-.08,.04-.17,.08-.28l1.8-4.89h1.05Z"/>
          <path class="cls-1" d="M196.45,52.72v-9.38h1.01v9.38h-1.01Z"/>
          <path class="cls-1" d="M200.04,44.87c-.21,0-.38-.07-.52-.21-.14-.14-.21-.31-.21-.51s.07-.37,.21-.51c.14-.14,.31-.21,.52-.21s.38,.07,.52,.21c.14,.14,.21,.31,.21,.51s-.07,.37-.21,.51c-.14,.14-.31,.21-.52,.21Zm.49,7.85h-1.01v-6.34h1.01v6.34Z"/>
          <path class="cls-1" d="M207.57,46.38l-2.53,6.34h-1l-2.4-6.34h1.11l1.61,4.61c.06,.17,.11,.33,.14,.47,.04,.15,.06,.28,.08,.41h.02c.02-.16,.05-.31,.08-.45,.03-.14,.07-.28,.12-.41l1.68-4.63h1.07Z"/>
          <path class="cls-1" d="M209.18,44.87c-.21,0-.38-.07-.52-.21-.14-.14-.21-.31-.21-.51s.07-.37,.21-.51c.14-.14,.31-.21,.52-.21s.38,.07,.52,.21c.14,.14,.21,.31,.21,.51s-.07,.37-.21,.51c-.14,.14-.31,.21-.52,.21Zm.49,7.85h-1.01v-6.34h1.01v6.34Z"/>
          <path class="cls-1" d="M216.99,52.72h-1.01v-3.61c0-.67-.12-1.18-.37-1.51-.25-.34-.61-.5-1.1-.5s-.93,.19-1.26,.57c-.33,.38-.5,.86-.5,1.45v3.61h-1.01v-6.34h1.01v1.05h.02c.24-.4,.53-.7,.88-.9,.35-.2,.75-.3,1.2-.3,.69,0,1.22,.22,1.59,.67s.55,1.09,.55,1.94v3.87Z"/>
          <path class="cls-1" d="M224.33,52.24c0,1.11-.28,1.94-.85,2.49-.57,.55-1.34,.83-2.33,.83-.43,0-.84-.04-1.21-.12-.37-.08-.76-.22-1.15-.4l.37-.78c.33,.15,.65,.26,.97,.33s.65,.11,1.01,.11c.68,0,1.21-.19,1.6-.58s.58-.97,.58-1.75v-.86h-.02c-.24,.4-.54,.71-.9,.91s-.79,.3-1.28,.3c-.79,0-1.42-.28-1.9-.84s-.72-1.32-.72-2.27c0-1.04,.26-1.89,.8-2.54,.53-.65,1.23-.98,2.11-.98,.43,0,.8,.09,1.12,.26,.32,.17,.58,.43,.78,.77h.02v-.88h1.01v6Zm-1.01-2.53v-.93c0-.5-.17-.93-.51-1.29-.34-.36-.76-.54-1.27-.54-.62,0-1.11,.21-1.47,.64-.36,.43-.54,1.08-.54,1.96,0,.75,.17,1.33,.5,1.73,.33,.4,.79,.6,1.37,.6s1.03-.2,1.39-.61c.36-.4,.54-.92,.54-1.55Z"/>
        </g>
      </g>
      <g>
        <path class="cls-1" d="M62.55,62.55H0V0H62.55V62.55ZM1.62,60.93H60.93V1.62H1.62V60.93Z"/>
        <path class="cls-1" d="M54.7,36.25c-3.33-15.67-17.1-24.95-25.77-29.74-.16-.09-.35,.03-.35,.21v2.81c0-.59-.29-1.15-.79-1.48l-1.85-1.26c-.42-.29-.92-.44-1.43-.44h-5.6c-.24,0-.44,.19-.44,.43v1.59c0,.37,.3,.66,.67,.66h2.09c.36,0,.66,.3,.66,.67v11.23c0,.64-.16,1.27-.47,1.83L8,47.19c-2.08,3.95,.42,8.93,4.87,9.29,.18,.02,.36,.02,.55,.02h13.37c.99,0,1.79-.8,1.79-1.78V9.61c0,.08,.04,.15,.1,.2l3.87,2.73c.06,.04,.1,.12,.1,.19v11.34c0,.14,.11,.24,.25,.24,.73-.02,3.39,0,6.31-5.13,.94-1.65,1.71,6-6.4,8.54-.1,.03-.16,.12-.16,.22l.02,7.52c0,.12,.09,.22,.2,.24,2.14,.32,7.38,1.09,12.42-7.46,2.67-4.53,1.36,12.59-12.65,11.44-.12,0-.07,1.16-.07,1.29l.08,6.72c0,.12-.03,1.21,.09,1.22,1.55,.13,10.25,.85,17.01-7.93,2.06-2.66-.82,14.38-16.86,11.88-.13-.02-.24,1.2-.24,1.33v2.16c0,.13,.1,.22,.23,.24,14.4,1.68,25.11-4.91,21.83-20.36Z"/>
      </g>
    </g>
  </g>
</svg>